<svg width="400" xmlns="http://www.w3.org/2000/svg" height="400" id="screenshot-fd7eca63-39d9-80ce-8008-24299eed2699" viewBox="0 0 400 400" xmlns:xlink="http://www.w3.org/1999/xlink" fill="none" version="1.1"><g id="shape-fd7eca63-39d9-80ce-8008-24299eed2699"><defs><clipPath id="frame-clip-fd7eca63-39d9-80ce-8008-24299eed2699-render-1" class="frame-clip frame-clip-def"><rect rx="0" ry="0" x="0" y="0" width="400" height="400" transform="matrix(1.000000, 0.000000, 0.000000, 1.000000, 0.000000, 0.000000)"/></clipPath></defs><g class="frame-container-wrapper"><g class="frame-container-blur"><g class="frame-container-shadows"><g clip-path="url(#frame-clip-fd7eca63-39d9-80ce-8008-24299eed2699-render-1)" fill="none"><g class="fills" id="fills-fd7eca63-39d9-80ce-8008-24299eed2699"><rect rx="0" ry="0" x="0" y="0" width="400" height="400" transform="matrix(1.000000, 0.000000, 0.000000, 1.000000, 0.000000, 0.000000)" class="frame-background"/></g><g class="frame-children"><g id="shape-fd7eca63-39d9-80ce-8008-24299eed269a"><g class="fills" id="fills-fd7eca63-39d9-80ce-8008-24299eed269a"><path d="M27,176.95999145507812C27,283.1000061035156,129.7860107421875,344,200,344C269.0072021484375,344,374,265.27996826171875,374,176.95999145507812C343.3260498046875,176.95999145507812,289.6463623046875,176.95999145507812,289.6463623046875,176.95999145507812L266.640869140625,152L241.7181396484375,178.87998962402344L226.3812255859375,209.60000610351562L189.955810546875,56L157.36474609375,186.55999755859375L149.696044921875,176.95999145507812L138.193359375,176.95999145507812L113.270751953125,150.0800018310547L90.2652587890625,176.95999145507812L27,176.95999145507812" style="fill: rgb(0, 0, 0); fill-opacity: 1;"/></g><g id="strokes-a19d1d30-b685-8042-8008-2477287abb76-fd7eca63-39d9-80ce-8008-24299eed269a" class="strokes"><g class="inner-stroke-shape"><defs><clipPath id="inner-stroke-render-2-fd7eca63-39d9-80ce-8008-24299eed269a-0"><use href="#stroke-shape-render-2-fd7eca63-39d9-80ce-8008-24299eed269a-0"/></clipPath><path d="M27,176.95999145507812C27,283.1000061035156,129.7860107421875,344,200,344C269.0072021484375,344,374,265.27996826171875,374,176.95999145507812C343.3260498046875,176.95999145507812,289.6463623046875,176.95999145507812,289.6463623046875,176.95999145507812L266.640869140625,152L241.7181396484375,178.87998962402344L226.3812255859375,209.60000610351562L189.955810546875,56L157.36474609375,186.55999755859375L149.696044921875,176.95999145507812L138.193359375,176.95999145507812L113.270751953125,150.0800018310547L90.2652587890625,176.95999145507812L27,176.95999145507812" id="stroke-shape-render-2-fd7eca63-39d9-80ce-8008-24299eed269a-0" style="fill: none; stroke-width: 32; stroke: rgb(0, 179, 255); stroke-opacity: 1;"/></defs><use href="#stroke-shape-render-2-fd7eca63-39d9-80ce-8008-24299eed269a-0" clip-path="url('#inner-stroke-render-2-fd7eca63-39d9-80ce-8008-24299eed269a-0')"/></g></g></g></g></g></g></g></g></g></svg>