<svg width="400" xmlns="http://www.w3.org/2000/svg" height="400" id="screenshot-907cc358-5693-80df-8008-29cf4aed4357" viewBox="0 0 400 400" xmlns:xlink="http://www.w3.org/1999/xlink" fill="none" version="1.1"><g id="shape-907cc358-5693-80df-8008-29cf4aed4357"><defs><clipPath id="frame-clip-907cc358-5693-80df-8008-29cf4aed4357-render-1" class="frame-clip frame-clip-def"><rect rx="0" ry="0" x="0" y="0" width="400" height="400" transform="matrix(1.000000, 0.000000, 0.000000, 1.000000, 0.000000, 0.000000)"/></clipPath></defs><g class="frame-container-wrapper"><g class="frame-container-blur"><g class="frame-container-shadows"><g clip-path="url(#frame-clip-907cc358-5693-80df-8008-29cf4aed4357-render-1)" fill="none"><g class="fills" id="fills-907cc358-5693-80df-8008-29cf4aed4357"><rect rx="0" ry="0" x="0" y="0" width="400" height="400" transform="matrix(1.000000, 0.000000, 0.000000, 1.000000, 0.000000, 0.000000)" class="frame-background"/></g><g class="frame-children"><g id="shape-907cc358-5693-80df-8008-29cf4aed4358" rx="0" ry="0"><g clip-path="url(#render-2-907cc358-5693-80df-8008-29cf4aed435d-clip)"><g mask="url(#render-2-907cc358-5693-80df-8008-29cf4aed435d-mask)"><defs><filter id="render-2-907cc358-5693-80df-8008-29cf4aed435d-filter"><feFlood flood-color="white" result="FloodResult"/><feComposite in="FloodResult" in2="SourceGraphic" operator="in" result="comp"/></filter><clipPath id="render-2-907cc358-5693-80df-8008-29cf4aed435d-clip" class="mask-clip-path"><polyline points="50,150 350,150 350,250 50,250"/></clipPath><mask width="300" maskUnits="userSpaceOnUse" height="100" class="mask-shape" x="50" id="render-2-907cc358-5693-80df-8008-29cf4aed435d-mask" data-old-y="150" data-old-width="300" data-old-x="50" y="150" data-old-height="100"><g filter="url(#render-2-907cc358-5693-80df-8008-29cf4aed435d-filter)"><g id="shape-907cc358-5693-80df-8008-29cf4aed435d"><g class="fills" id="fills-907cc358-5693-80df-8008-29cf4aed435d"><rect rx="9" ry="9" x="50" y="150" transform="matrix(1.000000, 0.000000, 0.000000, 1.000000, 0.000000, 0.000000)" width="300" height="100" style="fill: rgb(177, 178, 181); fill-opacity: 1;"/></g></g></g></mask></defs><g id="shape-907cc358-5693-80df-8008-29cf4aed435e" rx="0" ry="0"><g id="shape-907cc358-5693-80df-8008-29cf4aed435f"><g class="fills" id="fills-907cc358-5693-80df-8008-29cf4aed435f"><rect rx="0" ry="0" x="50" y="202" transform="matrix(1.000000, 0.000000, 0.000000, 1.000000, 0.000000, 0.000000)" width="30" height="100" style="fill: rgb(78, 97, 121); fill-opacity: 1;"/></g></g><g id="shape-907cc358-5693-80df-8008-29cf4aed4364"><defs><linearGradient id="fill-color-gradient-render-6-0" x1="1" y1="0.5" x2="0" y2="0.5000000000000001" gradientTransform=""><stop offset="0" stop-color="#000000" stop-opacity="1"/><stop offset="1" stop-color="#000000" stop-opacity="0"/></linearGradient><pattern patternUnits="userSpaceOnUse" x="77" y="202" width="3" height="100" patternTransform="matrix(1.000000, 0.000000, 0.000000, 1.000000, 0.000000, 0.000000)" id="fill-0-render-6"><g><rect width="3" height="100" style="fill: url(&quot;#fill-color-gradient-render-6-0&quot;);"/></g></pattern></defs><g class="fills" id="fills-907cc358-5693-80df-8008-29cf4aed4364"><path d="M77,202L80,202L80,302L77,302L77,202" fill="url(#fill-0-render-6)"/></g></g><g id="shape-907cc358-5693-80df-8008-29cf4aed4360"><g class="fills" id="fills-907cc358-5693-80df-8008-29cf4aed4360"><rect rx="0" ry="0" x="80" y="186" transform="matrix(1.000000, 0.000000, 0.000000, 1.000000, 0.000000, 0.000000)" width="30" height="100" style="fill: rgb(0, 157, 244); fill-opacity: 1;"/></g></g><g id="shape-907cc358-5693-80df-8008-29cf4aed4365"><defs><linearGradient id="fill-color-gradient-render-8-0" x1="1" y1="0.5" x2="0" y2="0.5000000000000001" gradientTransform=""><stop offset="0" stop-color="#000000" stop-opacity="1"/><stop offset="1" stop-color="#000000" stop-opacity="0"/></linearGradient><pattern patternUnits="userSpaceOnUse" x="107" y="186" width="3" height="100" patternTransform="matrix(1.000000, 0.000000, 0.000000, 1.000000, 0.000000, 0.000000)" id="fill-0-render-8"><g><rect width="3" height="100" style="fill: url(&quot;#fill-color-gradient-render-8-0&quot;);"/></g></pattern></defs><g class="fills" id="fills-907cc358-5693-80df-8008-29cf4aed4365"><path d="M107,186L110,186L110,286L107,286L107,186" fill="url(#fill-0-render-8)"/></g></g><g id="shape-907cc358-5693-80df-8008-29cf4aed4361"><g class="fills" id="fills-907cc358-5693-80df-8008-29cf4aed4361"><rect rx="0" ry="0" x="110" y="172" transform="matrix(1.000000, 0.000000, 0.000000, 1.000000, 0.000000, 0.000000)" width="30" height="100" style="fill: rgb(1, 198, 83); fill-opacity: 1;"/></g></g><g id="shape-907cc358-5693-80df-8008-29cf4aed4366"><defs><linearGradient id="fill-color-gradient-render-10-0" x1="1" y1="0.5" x2="0" y2="0.5000000000000001" gradientTransform=""><stop offset="0" stop-color="#000000" stop-opacity="1"/><stop offset="1" stop-color="#000000" stop-opacity="0"/></linearGradient><pattern patternUnits="userSpaceOnUse" x="137" y="172" width="3" height="100" patternTransform="matrix(1.000000, 0.000000, 0.000000, 1.000000, 0.000000, 0.000000)" id="fill-0-render-10"><g><rect width="3" height="100" style="fill: url(&quot;#fill-color-gradient-render-10-0&quot;);"/></g></pattern></defs><g class="fills" id="fills-907cc358-5693-80df-8008-29cf4aed4366"><path d="M137,172L140,172L140,272L137,272L137,172" fill="url(#fill-0-render-10)"/></g></g><g id="shape-907cc358-5693-80df-8008-29cf4aed4362"><g class="fills" id="fills-907cc358-5693-80df-8008-29cf4aed4362"><rect rx="0" ry="0" x="140" y="160" transform="matrix(1.000000, 0.000000, 0.000000, 1.000000, 0.000000, 0.000000)" width="30" height="100" style="fill: rgb(253, 108, 0); fill-opacity: 1;"/></g></g><g id="shape-907cc358-5693-80df-8008-29cf4aed4367"><defs><linearGradient id="fill-color-gradient-render-12-0" x1="1" y1="0.5" x2="0" y2="0.5000000000000001" gradientTransform=""><stop offset="0" stop-color="#000000" stop-opacity="1"/><stop offset="1" stop-color="#000000" stop-opacity="0"/></linearGradient><pattern patternUnits="userSpaceOnUse" x="167" y="160" width="3" height="100" patternTransform="matrix(1.000000, 0.000000, 0.000000, 1.000000, 0.000000, 0.000000)" id="fill-0-render-12"><g><rect width="3" height="100" style="fill: url(&quot;#fill-color-gradient-render-12-0&quot;);"/></g></pattern></defs><g class="fills" id="fills-907cc358-5693-80df-8008-29cf4aed4367"><path d="M167,160L170,160L170,260L167,260L167,160" fill="url(#fill-0-render-12)"/></g></g><g id="shape-907cc358-5693-80df-8008-29cf4aed4363"><g class="fills" id="fills-907cc358-5693-80df-8008-29cf4aed4363"><rect rx="0" ry="0" x="170" y="150" transform="matrix(1.000000, 0.000000, 0.000000, 1.000000, 0.000000, 0.000000)" width="180" height="100" style="fill: rgb(247, 27, 109); fill-opacity: 1;"/></g></g></g><g id="shape-907cc358-5693-80df-8008-29d270bc34be"><defs><linearGradient id="fill-color-gradient-render-14-0" x1="0.5" y1="1" x2="0.4999999999999999" y2="3.0616169978683836e-17" gradientTransform=""><stop offset="0" stop-color="#000000" stop-opacity="0.5588235294117647"/><stop offset="1" stop-color="#000000" stop-opacity="0"/></linearGradient><pattern patternUnits="userSpaceOnUse" x="50" y="242" width="300" height="8" id="fill-0-render-14"><g><rect width="300" height="8" style="fill: url(&quot;#fill-color-gradient-render-14-0&quot;);"/></g></pattern></defs><g class="fills" id="fills-907cc358-5693-80df-8008-29d270bc34be"><rect rx="0" ry="0" x="50" y="242" transform="matrix(1.000000, 0.000000, 0.000000, 1.000000, 0.000000, 0.000000)" width="300" height="8" fill="url(#fill-0-render-14)"/></g></g></g></g></g><g id="shape-907cc358-5693-80df-8008-29cf4aed4359"><g class="fills" id="fills-907cc358-5693-80df-8008-29cf4aed4359"><path d="M170,206L229.034423828125,206L234,197L239,206L244,206L246,214L254,177L260,224L263,206L268,206L270,200L274,206L350,206"/></g><g id="strokes-bfecc588-d6e4-80bb-8008-29d2c8c8c845-907cc358-5693-80df-8008-29cf4aed4359" class="strokes"><g class="stroke-shape"><path d="M170,206L229.034423828125,206L234,197L239,206L244,206L246,214L254,177L260,224L263,206L268,206L270,200L274,206L350,206" style="fill: none; stroke-width: 2; stroke: rgb(0, 0, 0); stroke-opacity: 1;"/></g></g></g><g id="shape-907cc358-5693-80df-8008-29cf4aed435a"><g class="fills" id="fills-907cc358-5693-80df-8008-29cf4aed435a"><path d="M170,204L229.03466796875,204L234,195L239,204L244,204L246,212L254,175L260,222L263,204L268,204L270,198L274,204L350,204"/></g><g id="strokes-bfecc588-d6e4-80bb-8008-29d2c8c9a80e-907cc358-5693-80df-8008-29cf4aed435a" class="strokes"><g class="stroke-shape"><path d="M170,204L229.03466796875,204L234,195L239,204L244,204L246,212L254,175L260,222L263,204L268,204L270,198L274,204L350,204" style="fill: none; stroke-width: 2; stroke: rgb(255, 255, 255); stroke-opacity: 1;"/></g></g></g><g id="shape-907cc358-5693-80df-8008-29cf4aed435b"><g class="fills" id="fills-907cc358-5693-80df-8008-29cf4aed435b"><path d="M170,202L192.484619140625,202L204.730224609375,202L229.034423828125,202L234,193L239,202L244,202L246,210L254,173L260,220L263,202L268,202L270,196L274,202L350,202"/></g><g id="strokes-bfecc588-d6e4-80bb-8008-29d2c8ca28ad-907cc358-5693-80df-8008-29cf4aed435b" class="strokes"><g class="stroke-shape"><path d="M170,202L192.484619140625,202L204.730224609375,202L229.034423828125,202L234,193L239,202L244,202L246,210L254,173L260,220L263,202L268,202L270,196L274,202L350,202" style="fill: none; stroke-width: 2; stroke: rgb(255, 255, 255); stroke-opacity: 1;"/></g></g></g></g></g></g></g></g></g></svg>